<svg xmlns="http://www.w3.org/2000/svg" version="1.1" xmlns:xlink="http://www.w3.org/1999/xlink" xmlns:svgjs="http://svgjs.com/svgjs" width="1440" height="560" preserveAspectRatio="none" viewBox="0 0 1440 560"><g mask="url(&quot;#SvgjsMask1173&quot;)" fill="none"><rect width="1440" height="560" x="0" y="0" fill="url(#SvgjsLinearGradient1174)"></rect><path d="M 0,205 C 57.6,190.6 172.8,137.4 288,133 C 403.2,128.6 460.8,181.8 576,183 C 691.2,184.2 748.8,130.2 864,139 C 979.2,147.8 1036.8,241 1152,227 C 1267.2,213 1382.4,100.6 1440,69L1440 560L0 560z" fill="#184a7e"></path><path d="M 0,473 C 72,436.4 216,294.2 360,290 C 504,285.8 576,443.8 720,452 C 864,460.2 936,324.6 1080,331 C 1224,337.4 1368,453.4 1440,484L1440 560L0 560z" fill="rgba(12, 113, 223, 1)"></path></g><defs><mask id="SvgjsMask1173"><rect width="1440" height="560" fill="#ffffff"></rect></mask><linearGradient x1="15.28%" y1="139.29%" x2="84.72%" y2="-39.29%" gradientUnits="userSpaceOnUse" id="SvgjsLinearGradient1174"><stop stop-color="#0e2a47" offset="0"></stop><stop stop-color="rgba(255, 255, 255, 1)" offset="1"></stop></linearGradient></defs></svg>